<svg width="10" height="17" viewBox="0 0 10 17" fill="none" xmlns="http://www.w3.org/2000/svg">
<path d="M9.61753 0.374609C9.86242 0.614521 10 0.939881 10 1.27913C10 1.61838 9.86242 1.94374 9.61753 2.18365L3.15197 8.51631L9.61753 14.849C9.84798 15.0914 9.97342 15.412 9.96747 15.7432C9.96152 16.0744 9.82463 16.3904 9.58561 16.6248C9.34659 16.8592 9.02408 16.9936 8.68593 16.9998C8.34778 17.006 8.02036 16.8835 7.77256 16.658L0.382471 9.42184C0.137577 9.18192 0 8.85656 0 8.51731C0 8.17806 0.137577 7.8527 0.382471 7.61279L7.77052 0.374609C8.01546 0.134748 8.34765 0 8.69402 0C9.04039 0 9.37258 0.134748 9.61753 0.374609Z" fill="#FFFEFE"/>
</svg>
