<svg width="90" height="90" viewBox="0 0 90 90" fill="none" xmlns="http://www.w3.org/2000/svg">
<path d="M7.50122 52.5C7.50122 38.3588 7.50122 31.2862 11.8962 26.895C16.2912 22.5037 23.36 22.5 37.5012 22.5H52.5012C66.6425 22.5 73.715 22.5 78.1062 26.895C82.4975 31.29 82.5012 38.3588 82.5012 52.5C82.5012 66.6412 82.5012 73.7137 78.1062 78.105C73.7112 82.4962 66.6425 82.5 52.5012 82.5H37.5012C23.36 82.5 16.2875 82.5 11.8962 78.105C7.50497 73.71 7.50122 66.6412 7.50122 52.5Z" stroke="white" stroke-width="3"/>
<path opacity="0.5" d="M60.0012 22.4971C60.0012 15.4246 60.0012 11.8921 57.8037 9.69457C55.6062 7.49707 52.0737 7.49707 45.0012 7.49707C37.9287 7.49707 34.3962 7.49707 32.1987 9.69457C30.0012 11.8921 30.0012 15.4246 30.0012 22.4971" stroke="white" stroke-width="3"/>
<path d="M50.625 52.4971H39.375M45 46.8721V58.1221" stroke="white" stroke-width="3" stroke-linecap="round"/>
<path opacity="0.5" d="M45.0012 67.4941C53.2855 67.4941 60.0012 60.7784 60.0012 52.4941C60.0012 44.2099 53.2855 37.4941 45.0012 37.4941C36.7169 37.4941 30.0012 44.2099 30.0012 52.4941C30.0012 60.7784 36.7169 67.4941 45.0012 67.4941Z" stroke="white" stroke-width="3"/>
</svg>
