<svg width="70" height="70" viewBox="0 0 70 70" fill="none" xmlns="http://www.w3.org/2000/svg">
<g clip-path="url(#clip0_594_289)">
<path d="M40.8333 13.7013C40.8333 11.6567 39.1766 10 37.132 10H32.8708C30.8233 10 29.1666 11.6567 29.1666 13.7013C29.1666 15.3871 28.0116 16.8337 26.4395 17.4521C26.1906 17.5532 25.9446 17.6562 25.7016 17.7612C24.1528 18.4321 22.3124 18.2279 21.1166 17.035C20.4222 16.3422 19.4813 15.9531 18.5003 15.9531C17.5194 15.9531 16.5785 16.3422 15.8841 17.035L12.8683 20.0508C12.1754 20.7453 11.7863 21.6861 11.7863 22.6671C11.7863 23.648 12.1754 24.5889 12.8683 25.2833C14.0641 26.4792 14.2683 28.3167 13.5916 29.8683C13.4853 30.1125 13.3832 30.3585 13.2853 30.6062C12.667 32.1783 11.2203 33.3333 9.5345 33.3333C7.48992 33.3333 5.83325 34.99 5.83325 37.0346V41.2988C5.83325 43.3433 7.48992 45 9.5345 45C11.2203 45 12.667 46.155 13.2853 47.7271C13.3864 47.976 13.4885 48.2219 13.5916 48.465C14.2653 50.0138 14.0612 51.8542 12.8683 53.05C12.1754 53.7444 11.7863 54.6853 11.7863 55.6663C11.7863 56.6472 12.1754 57.5881 12.8683 58.2825L15.8841 61.2983C16.5785 61.9912 17.5194 62.3803 18.5003 62.3803C19.4813 62.3803 20.4222 61.9912 21.1166 61.2983C22.3124 60.1025 24.1499 59.8983 25.7016 60.5721C25.9446 60.679 26.1906 60.7821 26.4395 60.8813C28.0116 61.4996 29.1666 62.9463 29.1666 64.6321C29.1666 66.6767 30.8233 68.3333 32.8678 68.3333H37.132C39.1766 68.3333 40.8333 66.6767 40.8333 64.6321C40.8333 62.9463 41.9883 61.4996 43.5603 60.8783C43.8092 60.7811 44.0552 60.68 44.2983 60.575C45.847 59.8983 47.6874 60.1054 48.8803 61.2983C49.5749 61.9921 50.5164 62.3817 51.498 62.3817C52.4797 62.3817 53.4212 61.9921 54.1158 61.2983L57.1316 58.2825C57.8244 57.5881 58.2135 56.6472 58.2135 55.6663C58.2135 54.6853 57.8244 53.7444 57.1316 53.05C55.9358 51.8542 55.7316 50.0167 56.4053 48.465C56.5123 48.2219 56.6153 47.976 56.7145 47.7271C57.3328 46.155 58.7795 45 60.4653 45C62.5099 45 64.1666 43.3433 64.1666 41.2988V37.0375C64.1666 34.9929 62.5099 33.3363 60.4653 33.3363C58.7795 33.3363 57.3328 32.1813 56.7116 30.6092C56.6137 30.3615 56.5116 30.1155 56.4053 29.8712C55.7345 28.3225 55.9387 26.4821 57.1316 25.2863C57.8244 24.5918 58.2135 23.6509 58.2135 22.67C58.2135 21.6891 57.8244 20.7482 57.1316 20.0538L54.1158 17.0379C53.4213 16.3451 52.4804 15.956 51.4995 15.956C50.5186 15.956 49.5777 16.3451 48.8833 17.0379C47.6874 18.2338 45.8499 18.4379 44.2983 17.7642C44.0541 17.6569 43.8081 17.5538 43.5603 17.455C41.9883 16.8338 40.8333 15.3842 40.8333 13.7013Z" stroke="white" stroke-opacity="0.75" stroke-width="4"/>
<path d="M46.6666 39.1667C46.6666 42.2609 45.4374 45.2283 43.2495 47.4162C41.0616 49.6042 38.0941 50.8333 34.9999 50.8333C31.9057 50.8333 28.9383 49.6042 26.7503 47.4162C24.5624 45.2283 23.3333 42.2609 23.3333 39.1667C23.3333 36.0725 24.5624 33.105 26.7503 30.9171C28.9383 28.7292 31.9057 27.5 34.9999 27.5C38.0941 27.5 41.0616 28.7292 43.2495 30.9171C45.4374 33.105 46.6666 36.0725 46.6666 39.1667Z" stroke="white" stroke-opacity="0.75" stroke-width="4"/>
</g>
<defs>
<clipPath id="clip0_594_289">
<rect width="70" height="70" fill="white"/>
</clipPath>
</defs>
</svg>
