<svg width="70" height="70" viewBox="0 0 70 70" fill="none" xmlns="http://www.w3.org/2000/svg">
<path d="M34.9999 61.9788C49.9001 61.9788 61.9791 49.8999 61.9791 34.9997C61.9791 20.0995 49.9001 8.02051 34.9999 8.02051C20.0997 8.02051 8.02075 20.0995 8.02075 34.9997C8.02075 49.8999 20.0997 61.9788 34.9999 61.9788Z" stroke="white" stroke-opacity="0.75" stroke-width="4"/>
<path d="M35 50.3125C43.4569 50.3125 50.3125 43.4569 50.3125 35C50.3125 26.5431 43.4569 19.6875 35 19.6875C26.5431 19.6875 19.6875 26.5431 19.6875 35C19.6875 43.4569 26.5431 50.3125 35 50.3125Z" stroke="white" stroke-opacity="0.75" stroke-width="4"/>
<path d="M34.9998 40.8327C38.2215 40.8327 40.8332 38.221 40.8332 34.9993C40.8332 31.7777 38.2215 29.166 34.9998 29.166C31.7782 29.166 29.1665 31.7777 29.1665 34.9993C29.1665 38.221 31.7782 40.8327 34.9998 40.8327Z" fill="white" fill-opacity="0.75"/>
</svg>
