<svg width="10" height="17" viewBox="0 0 10 17" fill="none" xmlns="http://www.w3.org/2000/svg">
<path d="M0.382471 0.374609C0.137576 0.614521 0 0.939881 0 1.27913C0 1.61838 0.137576 1.94374 0.382471 2.18365L6.84803 8.51631L0.382471 14.849C0.152023 15.0914 0.0265778 15.412 0.0325305 15.7432C0.0384832 16.0744 0.17537 16.3904 0.414388 16.6248C0.653406 16.8592 0.975919 16.9936 1.31407 16.9998C1.65222 17.006 1.97964 16.8835 2.22744 16.658L9.61753 9.42184C9.86242 9.18192 10 8.85656 10 8.51731C10 8.17806 9.86242 7.8527 9.61753 7.61279L2.22948 0.374609C1.98454 0.134748 1.65235 0 1.30598 0C0.959606 0 0.627418 0.134748 0.382471 0.374609Z" fill="#FFFEFE"/>
</svg>
