<svg width="70" height="70" viewBox="0 0 70 70" fill="none" xmlns="http://www.w3.org/2000/svg">
<path d="M61.25 20.4167C61.25 26.8625 49.4958 32.0833 35 32.0833C20.5042 32.0833 8.75 26.8625 8.75 20.4167M61.25 20.4167C61.25 13.9708 49.4958 8.75 35 8.75C20.5042 8.75 8.75 13.9708 8.75 20.4167M61.25 20.4167V35M8.75 20.4167V35M8.75 35C8.75 41.4458 20.5042 46.6667 35 46.6667M8.75 35V49.5833C8.75 56.0292 20.5042 61.25 35 61.25M52.5 43.75V52.5M52.5 52.5V61.25M52.5 52.5H61.25M52.5 52.5H43.75" stroke="white" stroke-opacity="0.75" stroke-width="4" stroke-linecap="round" stroke-linejoin="round"/>
</svg>
