<svg width="92" height="92" viewBox="0 0 92 92" fill="none" xmlns="http://www.w3.org/2000/svg">
<path d="M43.6343 88.2744C45.1567 88.8619 46.8433 88.8619 48.3657 88.2744C60.2388 83.7165 70.45 75.664 77.6504 65.1808C84.8508 54.6975 88.7018 42.2766 88.6946 29.5587V9.85756C88.6946 8.11471 88.0023 6.44324 86.7699 5.21086C85.5375 3.97848 83.866 3.28613 82.1232 3.28613H9.87688C8.13631 3.28787 6.46752 3.98008 5.23675 5.21086C4.00597 6.44163 3.31376 8.11042 3.31202 9.85099V29.5587C3.30436 42.2758 7.15436 54.6962 14.3535 65.1793C21.5527 75.6625 31.7625 83.7154 43.6343 88.2744Z" stroke="white" stroke-width="3" stroke-linecap="round" stroke-linejoin="round"/>
<path d="M52.5715 19.7676H39.4286V32.9104H26.2924V46.0401H39.4352V59.183H52.5649V46.0401H65.7078V32.9039H52.5649L52.5715 19.7676Z" stroke="white" stroke-width="3" stroke-linecap="round" stroke-linejoin="round"/>
</svg>
