<svg width="94" height="94" viewBox="0 0 94 94" fill="none" xmlns="http://www.w3.org/2000/svg">
<path d="M22.375 26.25H59.5833M22.375 41.9167H47.8333M74.578 76.4947C71.6399 79.4327 67.6551 81.0833 63.5 81.0833C59.3449 81.0833 55.3601 79.4327 52.422 76.4947C49.4839 73.5566 47.8333 69.5717 47.8333 65.4167C47.8333 61.2616 49.4839 57.2767 52.422 54.3387C55.3601 51.4006 59.3449 49.75 63.5 49.75C67.6551 49.75 71.6399 51.4006 74.578 54.3387C77.5161 57.2767 79.1667 61.2616 79.1667 65.4167C79.1667 69.5717 77.5161 73.5566 74.578 76.4947ZM74.578 76.4947L85.0417 86.9583" stroke="white" stroke-width="3"/>
<path d="M79.1667 44.4354V6.66699H8.66675V85.0003H43.4272" stroke="white" stroke-width="3"/>
</svg>
